<svg width="184" height="52" viewBox="0 0 184 52" fill="none" xmlns="http://www.w3.org/2000/svg">
<path d="M56.7273 0H4.72727C3.47352 0 2.27112 0.49805 1.38459 1.38459C0.49805 2.27112 0 3.47352 0 4.72727V47.2727C0 48.5265 0.49805 49.7289 1.38459 50.6154C2.27112 51.5019 3.47352 52 4.72727 52H56.7273C57.981 52 59.1834 51.5019 60.07 50.6154C60.9565 49.7289 61.4545 48.5265 61.4545 47.2727V4.72727C61.4545 3.47352 60.9565 2.27112 60.07 1.38459C59.1834 0.49805 57.981 0 56.7273 0ZM56.7273 4.72727V9.45455H4.72727V4.72727H56.7273ZM56.7273 47.2727H4.72727V14.1818H56.7273V47.2727ZM44.9091 21.2727C44.9091 25.034 43.4149 28.6412 40.7553 31.3008C38.0957 33.9604 34.4885 35.4545 30.7273 35.4545C26.966 35.4545 23.3588 33.9604 20.6992 31.3008C18.0396 28.6412 16.5455 25.034 16.5455 21.2727C16.5455 20.6459 16.7945 20.0447 17.2377 19.6014C17.681 19.1581 18.2822 18.9091 18.9091 18.9091C19.536 18.9091 20.1372 19.1581 20.5804 19.6014C21.0237 20.0447 21.2727 20.6459 21.2727 21.2727C21.2727 23.7802 22.2688 26.185 24.0419 27.9581C25.815 29.7312 28.2198 30.7273 30.7273 30.7273C33.2348 30.7273 35.6396 29.7312 37.4126 27.9581C39.1857 26.185 40.1818 23.7802 40.1818 21.2727C40.1818 20.6459 40.4308 20.0447 40.8741 19.6014C41.3174 19.1581 41.9186 18.9091 42.5455 18.9091C43.1723 18.9091 43.7735 19.1581 44.2168 19.6014C44.6601 20.0447 44.9091 20.6459 44.9091 21.2727Z" fill="#00B37E"/>
<path d="M84.2734 19.1631C84.2734 18.833 84.2227 18.5368 84.1211 18.2744C84.028 18.0036 83.8503 17.7581 83.5879 17.5381C83.3255 17.3096 82.9574 17.0853 82.4834 16.8652C82.0094 16.6452 81.3958 16.4167 80.6426 16.1797C79.8047 15.9089 79.0091 15.6042 78.2559 15.2656C77.5111 14.9271 76.8509 14.5335 76.2754 14.085C75.7083 13.6279 75.2598 13.099 74.9297 12.498C74.6081 11.8971 74.4473 11.1989 74.4473 10.4033C74.4473 9.63314 74.6165 8.9349 74.9551 8.30859C75.2936 7.67383 75.7676 7.13216 76.377 6.68359C76.9863 6.22656 77.7057 5.87533 78.5352 5.62988C79.373 5.38444 80.2913 5.26172 81.29 5.26172C82.6527 5.26172 83.8418 5.50716 84.8574 5.99805C85.873 6.48893 86.6602 7.16178 87.2188 8.0166C87.7858 8.87142 88.0693 9.84896 88.0693 10.9492H84.2861C84.2861 10.4076 84.1719 9.93359 83.9434 9.52734C83.7233 9.11263 83.3848 8.78678 82.9277 8.5498C82.4792 8.31283 81.9121 8.19434 81.2266 8.19434C80.5664 8.19434 80.0163 8.2959 79.5762 8.49902C79.1361 8.69368 78.806 8.96029 78.5859 9.29883C78.3659 9.62891 78.2559 10.0013 78.2559 10.416C78.2559 10.7292 78.332 11.0127 78.4844 11.2666C78.6452 11.5205 78.8822 11.7575 79.1953 11.9775C79.5085 12.1976 79.8936 12.4049 80.3506 12.5996C80.8076 12.7943 81.3366 12.9847 81.9375 13.1709C82.9447 13.4756 83.8291 13.8184 84.5908 14.1992C85.361 14.5801 86.0042 15.0075 86.5205 15.4814C87.0368 15.9554 87.4261 16.4928 87.6885 17.0938C87.9508 17.6947 88.082 18.376 88.082 19.1377C88.082 19.9417 87.9255 20.6611 87.6123 21.2959C87.2992 21.9307 86.8464 22.4681 86.2539 22.9082C85.6615 23.3483 84.9548 23.6826 84.1338 23.9111C83.3128 24.1396 82.3945 24.2539 81.3789 24.2539C80.4648 24.2539 79.5635 24.1354 78.6748 23.8984C77.7861 23.653 76.9779 23.2848 76.25 22.7939C75.5306 22.3031 74.9551 21.6768 74.5234 20.915C74.0918 20.1533 73.876 19.252 73.876 18.2109H77.6973C77.6973 18.7865 77.7861 19.2731 77.9639 19.6709C78.1416 20.0687 78.3913 20.3903 78.7129 20.6357C79.043 20.8812 79.4323 21.0589 79.8809 21.1689C80.3379 21.279 80.8372 21.334 81.3789 21.334C82.0391 21.334 82.5807 21.2409 83.0039 21.0547C83.4355 20.8685 83.7529 20.6104 83.9561 20.2803C84.1676 19.9502 84.2734 19.5778 84.2734 19.1631ZM94.0107 4.5V24H90.3545V4.5H94.0107ZM93.4902 16.6494H92.4873C92.4958 15.693 92.6227 14.8128 92.8682 14.0088C93.1136 13.1963 93.4648 12.4938 93.9219 11.9014C94.3789 11.3005 94.9248 10.835 95.5596 10.5049C96.2028 10.1748 96.9137 10.0098 97.6924 10.0098C98.3695 10.0098 98.9831 10.1071 99.5332 10.3018C100.092 10.488 100.57 10.7926 100.968 11.2158C101.374 11.6305 101.687 12.1764 101.907 12.8535C102.127 13.5306 102.237 14.3516 102.237 15.3164V24H98.5557V15.291C98.5557 14.6816 98.4668 14.2035 98.2891 13.8564C98.1198 13.501 97.8701 13.2513 97.54 13.1074C97.2184 12.9551 96.8206 12.8789 96.3467 12.8789C95.8219 12.8789 95.3734 12.9762 95.001 13.1709C94.637 13.3656 94.3451 13.6364 94.125 13.9834C93.9049 14.3219 93.7441 14.7197 93.6426 15.1768C93.541 15.6338 93.4902 16.1247 93.4902 16.6494ZM104.434 17.2715V17.0049C104.434 15.9977 104.577 15.071 104.865 14.2246C105.153 13.3698 105.572 12.6292 106.122 12.0029C106.672 11.3766 107.349 10.89 108.153 10.543C108.957 10.1875 109.88 10.0098 110.921 10.0098C111.962 10.0098 112.889 10.1875 113.701 10.543C114.514 10.89 115.195 11.3766 115.745 12.0029C116.304 12.6292 116.727 13.3698 117.015 14.2246C117.302 15.071 117.446 15.9977 117.446 17.0049V17.2715C117.446 18.2702 117.302 19.1969 117.015 20.0518C116.727 20.8981 116.304 21.6387 115.745 22.2734C115.195 22.8997 114.518 23.3864 113.714 23.7334C112.91 24.0804 111.987 24.2539 110.946 24.2539C109.905 24.2539 108.979 24.0804 108.166 23.7334C107.362 23.3864 106.681 22.8997 106.122 22.2734C105.572 21.6387 105.153 20.8981 104.865 20.0518C104.577 19.1969 104.434 18.2702 104.434 17.2715ZM108.09 17.0049V17.2715C108.09 17.847 108.141 18.3844 108.242 18.8838C108.344 19.3831 108.505 19.8232 108.725 20.2041C108.953 20.5765 109.249 20.8685 109.613 21.0801C109.977 21.2917 110.422 21.3975 110.946 21.3975C111.454 21.3975 111.89 21.2917 112.254 21.0801C112.618 20.8685 112.91 20.5765 113.13 20.2041C113.35 19.8232 113.511 19.3831 113.612 18.8838C113.722 18.3844 113.777 17.847 113.777 17.2715V17.0049C113.777 16.4463 113.722 15.9215 113.612 15.4307C113.511 14.9313 113.346 14.4912 113.117 14.1104C112.897 13.721 112.605 13.4163 112.241 13.1963C111.877 12.9762 111.437 12.8662 110.921 12.8662C110.405 12.8662 109.965 12.9762 109.601 13.1963C109.245 13.4163 108.953 13.721 108.725 14.1104C108.505 14.4912 108.344 14.9313 108.242 15.4307C108.141 15.9215 108.09 16.4463 108.09 17.0049ZM123.35 12.9043V29.2812H119.693V10.2637H123.083L123.35 12.9043ZM132.046 16.9795V17.2461C132.046 18.2448 131.927 19.1715 131.69 20.0264C131.462 20.8812 131.123 21.626 130.675 22.2607C130.226 22.887 129.668 23.3779 128.999 23.7334C128.339 24.0804 127.577 24.2539 126.714 24.2539C125.876 24.2539 125.148 24.0846 124.53 23.7461C123.912 23.4076 123.392 22.9336 122.969 22.3242C122.554 21.7064 122.22 20.9912 121.966 20.1787C121.712 19.3662 121.517 18.4945 121.382 17.5635V16.8652C121.517 15.8665 121.712 14.9525 121.966 14.123C122.22 13.2852 122.554 12.5615 122.969 11.9521C123.392 11.3343 123.908 10.8561 124.518 10.5176C125.135 10.179 125.859 10.0098 126.688 10.0098C127.56 10.0098 128.326 10.1748 128.986 10.5049C129.655 10.835 130.214 11.3089 130.662 11.9268C131.119 12.5446 131.462 13.2809 131.69 14.1357C131.927 14.9906 132.046 15.9385 132.046 16.9795ZM128.377 17.2461V16.9795C128.377 16.3955 128.326 15.8581 128.225 15.3672C128.132 14.8678 127.979 14.432 127.768 14.0596C127.564 13.6872 127.294 13.3994 126.955 13.1963C126.625 12.9847 126.223 12.8789 125.749 12.8789C125.25 12.8789 124.822 12.9593 124.467 13.1201C124.12 13.2809 123.836 13.5137 123.616 13.8184C123.396 14.123 123.231 14.487 123.121 14.9102C123.011 15.3333 122.943 15.8115 122.918 16.3447V18.1094C122.96 18.7357 123.079 19.2985 123.273 19.7979C123.468 20.2887 123.769 20.6781 124.175 20.9658C124.581 21.2536 125.114 21.3975 125.774 21.3975C126.257 21.3975 126.663 21.2917 126.993 21.0801C127.323 20.86 127.59 20.5596 127.793 20.1787C128.005 19.7979 128.153 19.3577 128.237 18.8584C128.33 18.359 128.377 17.8216 128.377 17.2461ZM137.975 12.9043V29.2812H134.318V10.2637H137.708L137.975 12.9043ZM146.671 16.9795V17.2461C146.671 18.2448 146.552 19.1715 146.315 20.0264C146.087 20.8812 145.748 21.626 145.3 22.2607C144.851 22.887 144.293 23.3779 143.624 23.7334C142.964 24.0804 142.202 24.2539 141.339 24.2539C140.501 24.2539 139.773 24.0846 139.155 23.7461C138.537 23.4076 138.017 22.9336 137.594 22.3242C137.179 21.7064 136.845 20.9912 136.591 20.1787C136.337 19.3662 136.142 18.4945 136.007 17.5635V16.8652C136.142 15.8665 136.337 14.9525 136.591 14.123C136.845 13.2852 137.179 12.5615 137.594 11.9521C138.017 11.3343 138.533 10.8561 139.143 10.5176C139.76 10.179 140.484 10.0098 141.313 10.0098C142.185 10.0098 142.951 10.1748 143.611 10.5049C144.28 10.835 144.839 11.3089 145.287 11.9268C145.744 12.5446 146.087 13.2809 146.315 14.1357C146.552 14.9906 146.671 15.9385 146.671 16.9795ZM143.002 17.2461V16.9795C143.002 16.3955 142.951 15.8581 142.85 15.3672C142.757 14.8678 142.604 14.432 142.393 14.0596C142.189 13.6872 141.919 13.3994 141.58 13.1963C141.25 12.9847 140.848 12.8789 140.374 12.8789C139.875 12.8789 139.447 12.9593 139.092 13.1201C138.745 13.2809 138.461 13.5137 138.241 13.8184C138.021 14.123 137.856 14.487 137.746 14.9102C137.636 15.3333 137.568 15.8115 137.543 16.3447V18.1094C137.585 18.7357 137.704 19.2985 137.898 19.7979C138.093 20.2887 138.394 20.6781 138.8 20.9658C139.206 21.2536 139.739 21.3975 140.399 21.3975C140.882 21.3975 141.288 21.2917 141.618 21.0801C141.948 20.86 142.215 20.5596 142.418 20.1787C142.63 19.7979 142.778 19.3577 142.862 18.8584C142.955 18.359 143.002 17.8216 143.002 17.2461ZM152.803 10.2637V24H149.134V10.2637H152.803ZM148.905 6.68359C148.905 6.15039 149.091 5.71029 149.464 5.36328C149.836 5.01628 150.336 4.84277 150.962 4.84277C151.58 4.84277 152.075 5.01628 152.447 5.36328C152.828 5.71029 153.019 6.15039 153.019 6.68359C153.019 7.2168 152.828 7.6569 152.447 8.00391C152.075 8.35091 151.58 8.52441 150.962 8.52441C150.336 8.52441 149.836 8.35091 149.464 8.00391C149.091 7.6569 148.905 7.2168 148.905 6.68359ZM159.404 13.1963V24H155.748V10.2637H159.176L159.404 13.1963ZM158.871 16.6494H157.881C157.881 15.6338 158.012 14.7197 158.274 13.9072C158.537 13.0863 158.905 12.388 159.379 11.8125C159.853 11.2285 160.416 10.7842 161.067 10.4795C161.728 10.1663 162.464 10.0098 163.276 10.0098C163.92 10.0098 164.508 10.1029 165.041 10.2891C165.574 10.4753 166.031 10.7715 166.412 11.1777C166.801 11.584 167.098 12.1214 167.301 12.79C167.512 13.4587 167.618 14.2754 167.618 15.2402V24H163.937V15.2275C163.937 14.6182 163.852 14.1442 163.683 13.8057C163.513 13.4671 163.264 13.2301 162.934 13.0947C162.612 12.9508 162.214 12.8789 161.74 12.8789C161.249 12.8789 160.822 12.9762 160.458 13.1709C160.103 13.3656 159.806 13.6364 159.569 13.9834C159.341 14.3219 159.167 14.7197 159.049 15.1768C158.93 15.6338 158.871 16.1247 158.871 16.6494ZM179.095 10.2637H182.408V23.543C182.408 24.7956 182.129 25.8577 181.57 26.7295C181.02 27.6097 180.25 28.2741 179.26 28.7227C178.27 29.1797 177.118 29.4082 175.807 29.4082C175.231 29.4082 174.622 29.332 173.979 29.1797C173.344 29.0273 172.734 28.7904 172.15 28.4688C171.575 28.1471 171.092 27.7409 170.703 27.25L172.315 25.0918C172.739 25.5827 173.229 25.9635 173.788 26.2344C174.347 26.5137 174.965 26.6533 175.642 26.6533C176.302 26.6533 176.86 26.5306 177.317 26.2852C177.774 26.0482 178.126 25.6969 178.371 25.2314C178.617 24.7744 178.739 24.2201 178.739 23.5684V13.4375L179.095 10.2637ZM169.853 17.2969V17.0303C169.853 15.9808 169.979 15.0286 170.233 14.1738C170.496 13.3105 170.864 12.57 171.338 11.9521C171.82 11.3343 172.404 10.8561 173.09 10.5176C173.775 10.179 174.55 10.0098 175.413 10.0098C176.327 10.0098 177.093 10.179 177.711 10.5176C178.329 10.8561 178.837 11.3385 179.234 11.9648C179.632 12.5827 179.941 13.3148 180.161 14.1611C180.39 14.999 180.567 15.9173 180.694 16.916V17.5C180.567 18.4564 180.377 19.3451 180.123 20.166C179.869 20.987 179.535 21.7064 179.12 22.3242C178.705 22.9336 178.189 23.4076 177.571 23.7461C176.962 24.0846 176.234 24.2539 175.388 24.2539C174.541 24.2539 173.775 24.0804 173.09 23.7334C172.413 23.3864 171.833 22.8997 171.351 22.2734C170.868 21.6471 170.496 20.9108 170.233 20.0645C169.979 19.2181 169.853 18.2956 169.853 17.2969ZM173.509 17.0303V17.2969C173.509 17.8639 173.564 18.3929 173.674 18.8838C173.784 19.3747 173.953 19.8105 174.182 20.1914C174.419 20.5638 174.711 20.8558 175.058 21.0674C175.413 21.2705 175.832 21.3721 176.314 21.3721C176.983 21.3721 177.529 21.2324 177.952 20.9531C178.375 20.6654 178.693 20.2718 178.904 19.7725C179.116 19.2731 179.239 18.6976 179.272 18.0459V16.3828C179.256 15.8496 179.184 15.3714 179.057 14.9482C178.93 14.5166 178.752 14.1484 178.523 13.8438C178.295 13.5391 177.999 13.3021 177.635 13.1328C177.271 12.9635 176.839 12.8789 176.34 12.8789C175.857 12.8789 175.438 12.9889 175.083 13.209C174.736 13.4206 174.444 13.7126 174.207 14.085C173.979 14.4574 173.805 14.8975 173.687 15.4053C173.568 15.9046 173.509 16.4463 173.509 17.0303Z" fill="white"/>
<path d="M137.825 35.277V48H135.212V35.277H137.825ZM141.739 35.277V37.3305H131.358V35.277H141.739ZM145.768 41.5511V43.526H140.831V41.5511H145.768ZM152.977 45.3872C152.977 45.2066 152.924 45.0435 152.82 44.8979C152.715 44.7523 152.52 44.6183 152.234 44.4959C151.955 44.3678 151.55 44.2513 151.02 44.1464C150.542 44.0415 150.096 43.9105 149.683 43.7532C149.275 43.5901 148.919 43.3949 148.616 43.1677C148.319 42.9405 148.086 42.6725 147.917 42.3638C147.748 42.0492 147.664 41.6909 147.664 41.289C147.664 40.8928 147.748 40.52 147.917 40.1705C148.092 39.8209 148.34 39.5122 148.66 39.2442C148.986 38.9704 149.383 38.7578 149.849 38.6063C150.32 38.449 150.851 38.3704 151.439 38.3704C152.26 38.3704 152.965 38.5014 153.554 38.7636C154.148 39.0257 154.602 39.3869 154.917 39.8471C155.237 40.3015 155.397 40.82 155.397 41.4026H152.881C152.881 41.1579 152.828 40.9394 152.723 40.7472C152.624 40.5491 152.467 40.3947 152.252 40.2841C152.042 40.1675 151.768 40.1093 151.43 40.1093C151.151 40.1093 150.909 40.1588 150.705 40.2578C150.501 40.351 150.344 40.4792 150.233 40.6423C150.128 40.7996 150.076 40.9744 150.076 41.1666C150.076 41.3123 150.105 41.4433 150.163 41.5598C150.227 41.6705 150.329 41.7725 150.469 41.8657C150.609 41.9589 150.789 42.0463 151.011 42.1278C151.238 42.2036 151.518 42.2735 151.85 42.3376C152.531 42.4774 153.14 42.6609 153.676 42.8881C154.212 43.1094 154.637 43.4124 154.952 43.7969C155.266 44.1755 155.424 44.6736 155.424 45.2911C155.424 45.7106 155.33 46.095 155.144 46.4446C154.958 46.7941 154.69 47.1 154.34 47.3621C153.991 47.6184 153.571 47.8194 153.082 47.965C152.598 48.1049 152.054 48.1748 151.448 48.1748C150.568 48.1748 149.822 48.0175 149.211 47.7029C148.605 47.3883 148.145 46.9893 147.83 46.5057C147.521 46.0164 147.367 45.5154 147.367 45.0028H149.752C149.764 45.3465 149.851 45.6232 150.015 45.8329C150.184 46.0426 150.396 46.1941 150.653 46.2873C150.915 46.3805 151.197 46.4271 151.5 46.4271C151.826 46.4271 152.097 46.3834 152.313 46.296C152.528 46.2028 152.691 46.0805 152.802 45.929C152.919 45.7717 152.977 45.5911 152.977 45.3872ZM159.513 34.5779V48H156.997V34.5779H159.513ZM159.155 42.9405H158.465C158.47 42.2822 158.558 41.6764 158.727 41.1229C158.896 40.5637 159.137 40.0802 159.452 39.6724C159.767 39.2588 160.142 38.9383 160.579 38.7112C161.022 38.484 161.511 38.3704 162.047 38.3704C162.513 38.3704 162.936 38.4374 163.314 38.5713C163.699 38.6995 164.028 38.9092 164.302 39.2005C164.581 39.486 164.797 39.8617 164.948 40.3277C165.1 40.7938 165.176 41.3589 165.176 42.023V48H162.642V42.0055C162.642 41.5861 162.58 41.2569 162.458 41.0181C162.341 40.7734 162.17 40.6015 161.942 40.5025C161.721 40.3977 161.447 40.3452 161.121 40.3452C160.76 40.3452 160.451 40.4122 160.195 40.5462C159.944 40.6802 159.743 40.8666 159.592 41.1055C159.44 41.3385 159.33 41.6123 159.26 41.9269C159.19 42.2414 159.155 42.5793 159.155 42.9405ZM169.746 38.5451V48H167.22V38.5451H169.746ZM167.063 36.0809C167.063 35.7139 167.191 35.411 167.448 35.1721C167.704 34.9333 168.048 34.8139 168.479 34.8139C168.904 34.8139 169.245 34.9333 169.501 35.1721C169.763 35.411 169.894 35.7139 169.894 36.0809C169.894 36.4479 169.763 36.7509 169.501 36.9897C169.245 37.2285 168.904 37.348 168.479 37.348C168.048 37.348 167.704 37.2285 167.448 36.9897C167.191 36.7509 167.063 36.4479 167.063 36.0809ZM174.342 40.6074V48H171.825V38.5451H174.194L174.342 40.6074ZM177.191 38.484L177.147 40.8171C177.025 40.7996 176.876 40.7851 176.701 40.7734C176.533 40.7559 176.378 40.7472 176.238 40.7472C175.883 40.7472 175.574 40.7938 175.312 40.887C175.056 40.9744 174.84 41.1055 174.665 41.2802C174.497 41.455 174.368 41.6676 174.281 41.9181C174.199 42.1686 174.153 42.4541 174.141 42.7745L173.634 42.6172C173.634 42.0055 173.695 41.4433 173.818 40.9307C173.94 40.4122 174.118 39.9607 174.351 39.5762C174.59 39.1918 174.881 38.8947 175.225 38.6849C175.568 38.4752 175.962 38.3704 176.404 38.3704C176.544 38.3704 176.687 38.382 176.833 38.4053C176.978 38.4228 177.098 38.449 177.191 38.484ZM183.447 38.5451V40.3277H177.942V38.5451H183.447ZM179.306 36.212H181.822V45.1513C181.822 45.4251 181.857 45.6348 181.927 45.7805C182.003 45.9261 182.113 46.028 182.259 46.0863C182.405 46.1387 182.588 46.165 182.81 46.165C182.967 46.165 183.107 46.1591 183.229 46.1475C183.357 46.13 183.465 46.1125 183.552 46.095L183.561 47.9476C183.346 48.0175 183.113 48.0728 182.862 48.1136C182.612 48.1544 182.335 48.1748 182.032 48.1748C181.478 48.1748 180.995 48.0845 180.581 47.9039C180.174 47.7175 179.859 47.4204 179.638 47.0126C179.416 46.6048 179.306 46.0688 179.306 45.4047V36.212Z" fill="white"/>
</svg>
